<?xml version="1.0" encoding="UTF-8" standalone="no"?>
<svg
   xmlns:dc="http://purl.org/dc/elements/1.1/"
   xmlns:cc="http://creativecommons.org/ns#"
   xmlns:rdf="http://www.w3.org/1999/02/22-rdf-syntax-ns#"
   xmlns:svg="http://www.w3.org/2000/svg"
   xmlns="http://www.w3.org/2000/svg"
   id="SVGRoot"
   version="1.1"
   viewBox="0 0 38.092491 13.510637"
   height="13.510637mm"
   width="38.092491mm">
  <defs
     id="defs5852" />
  <metadata
     id="metadata5855">
    <rdf:RDF>
      <cc:Work
         rdf:about="">
        <dc:format>image/svg+xml</dc:format>
        <dc:type
           rdf:resource="http://purl.org/dc/dcmitype/StillImage" />
        <dc:title></dc:title>
      </cc:Work>
    </rdf:RDF>
  </metadata>
  <g
     transform="translate(-1.1258866,-5.0856957)"
     id="layer1">
    <g
       id="g6432">
      <g
         id="flowRoot6408"
         style="font-style:normal;font-variant:normal;font-weight:800;font-stretch:normal;font-size:42.66666794px;line-height:1.25;font-family:Phenomena;-inkscape-font-specification:'Phenomena Ultra-Bold';letter-spacing:0px;word-spacing:0px;fill:#000000;fill-opacity:1;stroke:none"
         transform="scale(0.26458333)"
         aria-label="brille">
        <path
           id="path6436"
           style="font-style:normal;font-variant:normal;font-weight:normal;font-stretch:normal;font-size:64px;font-family:Phenomena;-inkscape-font-specification:Phenomena"
           d="m 18.312,34.911035 c 2.901333,0 5.248,0.96 7.04,2.88 1.834667,1.877333 2.752,4.266667 2.752,7.168 v 13.184 c 0,2.901333 -0.917333,5.312 -2.752,7.232 -1.792,1.877333 -4.138667,2.816 -7.04,2.816 -2.901333,0 -5.269333,-0.938667 -7.104,-2.816 -1.792,-1.92 -2.688,-4.330667 -2.688,-7.232 v -32.752 c 0,-0.426667 0.314038,-0.364694 0.64,-0.64 l 2.368,-2 c 0.325962,-0.275306 0.64,0.213333 0.64,0.64 v 14.72 c 1.706667,-2.133333 3.754667,-3.2 6.144,-3.2 z m 6.144,10.048 c 0,-1.962667 -0.554667,-3.541333 -1.664,-4.736 -1.109333,-1.194667 -2.602667,-1.792 -4.48,-1.792 -1.877333,0 -3.370667,0.597333 -4.48,1.792 -1.109333,1.194667 -1.664,2.773333 -1.664,4.736 v 13.184 c 0,1.962667 0.554667,3.541333 1.664,4.736 1.109333,1.194667 2.602667,1.792 4.48,1.792 1.877333,0 3.370667,-0.597333 4.48,-1.792 1.109333,-1.194667 1.664,-2.773333 1.664,-4.736 z" />
        <path
           id="path6438"
           style="font-style:normal;font-variant:normal;font-weight:normal;font-stretch:normal;font-size:64px;font-family:Phenomena;-inkscape-font-specification:Phenomena"
           d="m 35.16,67.551035 q -0.64,0 -0.64,-0.64 v -21.696 q 0,-4.352 2.816,-7.104 2.88,-2.752 7.232,-2.752 h 2.816 q 0.64,0 0.64,0.64 v 2.24 q 0,0.64 -0.64,0.64 h -2.816 q -2.88,0 -4.672,1.728 -1.728,1.664 -1.728,4.608 v 21.696 q 0,0.64 -0.64,0.64 z" />
        <path
           id="path6440"
           style="font-style:normal;font-variant:normal;font-weight:normal;font-stretch:normal;font-size:64px;font-family:Phenomena;-inkscape-font-specification:Phenomena"
           d="m 53.55,67.551035 c -0.426667,0 -0.64,-0.213333 -0.64,-0.64 v -30.72 c 0,-0.426667 0.314038,-0.364694 0.64,-0.64 l 2.368,-2 c 0.325962,-0.275306 0.64,0.213333 0.64,0.64 v 32.72 c 0,0.426667 -0.213333,0.64 -0.64,0.64 z" />
        <path
           id="path6442"
           style="font-style:normal;font-variant:normal;font-weight:normal;font-stretch:normal;font-size:64px;font-family:Phenomena;-inkscape-font-specification:Phenomena"
           d="m 65.425,67.551035 c -0.426667,0 -0.64,-0.213333 -0.64,-0.64 v -41.52 c 0,-0.426667 0.314038,-0.364694 0.64,-0.64 l 2.368,-2 c 0.325962,-0.275306 0.64,0.213333 0.64,0.64 v 43.52 c 0,0.426667 -0.213333,0.64 -0.64,0.64 z" />
        <path
           id="path6444"
           style="font-style:normal;font-variant:normal;font-weight:normal;font-stretch:normal;font-size:64px;font-family:Phenomena;-inkscape-font-specification:Phenomena"
           d="m 77.3,67.551035 c -0.426667,0 -0.64,-0.213333 -0.64,-0.64 v -41.52 c 0,-0.426667 0.314038,-0.364694 0.64,-0.64 l 2.368,-2 c 0.325962,-0.275306 0.64,0.213333 0.64,0.64 v 43.52 c 0,0.426667 -0.213333,0.64 -0.64,0.64 z" />
        <path
           id="path6446"
           style="font-style:normal;font-variant:normal;font-weight:normal;font-stretch:normal;font-size:64px;font-family:Phenomena;-inkscape-font-specification:Phenomena"
           d="m 96.672,68.127035 q -4.416,0 -7.104,-2.752 -2.688,-2.752 -2.688,-7.296 v -12.992 q 0,-4.48 2.624,-7.296 2.688,-2.816 7.168,-2.816 4.352,0 7.04,2.816 2.752,2.752 2.752,7.04 0,4.032 -2.752,6.72 -2.688,2.624 -7.04,2.624 h -6.144 v 3.904 q 0,2.944 1.664,4.736 1.664,1.792 4.48,1.792 2.688,0 4.288,-1.792 1.664,-1.792 1.792,-4.736 0,-0.64 0.64,-0.64 h 2.368 q 0.64,0 0.64,0.64 -0.128,4.48 -2.816,7.296 -2.688,2.752 -6.912,2.752 z m 0,-17.472 q 2.816,0 4.48,-1.6 1.664,-1.664 1.664,-4.224 0,-2.816 -1.664,-4.544 -1.664,-1.792 -4.48,-1.792 -2.944,0 -4.544,1.792 -1.6,1.792 -1.6,4.8 v 5.568 z" />
      </g>
      <g
         id="flowRoot6416"
         style="font-style:normal;font-variant:normal;font-weight:800;font-stretch:normal;font-size:64px;line-height:1.25;font-family:Phenomena;-inkscape-font-specification:'Phenomena Ultra-Bold';letter-spacing:0px;word-spacing:0px;fill:#e6a031;fill-opacity:1;stroke:none"
         transform="matrix(0.26458333,0,0,0.26458333,6.9148196,-2.0613105)"
         aria-label="m">
        <path
           id="path6449"
           style="font-size:64px"
           d="m 109.036,42.52403 q 4.544,0 7.296,3.008 2.816,3.008 2.816,7.808 v 20.8 q 0,1.152 -1.088,1.152 h -5.184 q -1.152,0 -1.152,-1.152 v -21.184 q 0,-1.536 -0.704,-2.368 -0.704,-0.896 -1.984,-0.896 -1.344,0 -2.048,0.896 -0.704,0.832 -0.704,2.368 v 21.184 q 0,1.152 -1.088,1.152 h -5.248 q -1.088,0 -1.088,-1.152 v -21.184 q 0,-1.536 -0.704,-2.368 -0.704,-0.896 -2.048,-0.896 -1.28,0 -1.984,0.896 -0.704,0.832 -0.704,2.368 v 21.184 q 0,1.152 -1.152,1.152 h -5.184 q -1.088,0 -1.088,-1.152 v -20.8 q 0,-4.8 2.752,-7.808 2.816,-3.008 7.36,-3.008 3.84,0 6.464,2.816 2.624,-2.816 6.464,-2.816 z" />
      </g>
    </g>
    <rect
       ry="1.4532028"
       y="5.0856957"
       x="1.1258866"
       height="13.510637"
       width="38.092491"
       id="rect6434"
       style="fill:none;fill-opacity:1;fill-rule:nonzero;stroke:none;stroke-width:0.065;stroke-miterlimit:4;stroke-dasharray:0.0325, 0.0325;stroke-dashoffset:0;stroke-opacity:1" />
  </g>
</svg>
